/* XPM */
static char *BrickWall_xpm[] = {
"50 50 2 1",
"  c #9CA0B0",
". c #D20F39",
/* pixels */
"......................       .....................",
"....... ....... .........  ................... ...",
"   . . . . . . . . . . .  .... . . . . . . . . . .",
"  . . . . . .     . . . . ...   . .       .   . . ",
" . .   . . . . . . . . .  ..     .   . . . .   . .",
".   . . . . . . . .   . . ... . . . . .   . .     ",
" .   . . .   .     . .    .  . .   .   .   . . . .",
". .       . . . . . . . . ... . . . .   . . . . . ",
" . . . .   . . . . . . .  .. . . . . . . .     . .",
". . . . .   . . . . . . . ...   . . . . . . . . . ",
" . . . . . . .   .   . .  .. . . . . .   .   . . .",
".     . . . . . . .   .   ...     . . . . . . . . ",
" . . .       . . . . .    ..   . .   .   . .   . .",
".   . . . . .       . . . ... . . . . .     .   . ",
" . . . . . .   . . . . .  .. . . .   . . . . . . .",
". . . .     . . . . . . . ... . . . . . . . . . . ",
" .   . . . . .     . .    ..     . .   . . .   . .",
".   . . . . . . . .   . . ... . . . . .   . . . . ",
" . . .       . . . . . .  .. .   . .   . . . . . .",
". . . . . . . . .         ... . . . . . . .   .   ",
" .   . . . . . . . . . . ... .       .   . . .   .",
". . . . .       . . . .   ... . . .   .   . . . . ",
" .   . . . . .   . . .    .. . . . . . . . . . . .",
"            .             ...        .       .    ",
"                         .....                    ",
"   ...........................................    ",
" ........... . ......................... . .....  ",
"... . . . . . . . . . . . . .   . . . . . . ..... ",
".. . . . . . . . .   . . . . . .   .   . . . . .  ",
"... . . . .     . . .       . . . . .     .   . . ",
".. . . . . . . . . . . . . . . . . . .   . .   .  ",
"...       . . . . . . . .     .   . . . . . . . . ",
".. . . . . .   .   .   . . . . . . .   . . . . .  ",
". . . . . . . . .   . . .   . . . . . . . . .   . ",
".. . . . . . . . . . . . .   .   .         . . .  ",
"... .     . . . . . . .     . . . . . . . . . . . ",
".. . . . . .   . .   .   . . . . . . . .   . . .  ",
"... . . . . . . . . .   .     .   . . . . . . . . ",
".. . .   . . . . . . . . .   . .   . . .   . . .  ",
"...   .   .   . . . . . . . . . .   . . . .   . . ",
".. . . . . . . .   . . . . . .   . . .   . . . .  ",
"...   . . . . . .   . . . . . . . .   . . . .     ",
".. . . .     .     .   .   . . . . . . . .   . .  ",
"...   . . . . . . . . . . . .     . . . . . . . . ",
"..   . . . . .   . . . .     .   . . . . . .   .  ",
"... . . .   .     . .     . . . . .     .     .   ",
".. . .   . . . . . . . . . . .   .   . . . . . .  ",
" .. .   . . . . . . . . . . . . . . . . . . . .   ",
"      .  . . .     . .       . . . . . . . . .    ",
"                                                  "
};
