/* XPM */
static char * SunLogoBase_xpm[] = {
"48 48 3 1 0 0",
"  c #ACB0BE",
". c #CCD0DA",
"+ c #EFF1F5",
/* pixels */
" ... .+++. .+++. .+++++. ... .+++. .+++. .+++++.",
".   .+++. .+++. .+++.+++.   .+++. .+++. .+++.+++",
".   .++. .+++. .+++. .++.   .++. .+++. .+++. .++",
".   .+++.+++. .+++. .+++.   .+++.+++. .+++. .+++",
" ... .+++++. .+++. .+++. ... .+++++. .+++. .+++.",
".+++. .+++. .+++. .+++. .+++. .+++. .+++. .+++. ",
"+++++. ... .+++. .+++. .+++++. ... .+++. .+++. .",
"++.+++.   .+++. .+++. .+++.+++.   .+++. .+++. .+",
"+. .+++. .+++. .+++.  .++. .+++. .+++. .+++.  .+",
"++. .+++. .+. .+++. . .+++. .+++. .+. .+++. . .+",
"+++. .+++. . .+++. .+. .+++. .+++. . .+++. .+. .",
".+++. .+++. .+++. .+++. .+++. .+++. .+++. .+++. ",
" .+++. .+++. .+. . .+++. .+++. .+++. .+. . .+++.",
". .+++. .+++. . .+. .+++. .+++. .+++. . .+. .+++",
"+. .+++. .+++. .+++. .+++. .+++. .+++. .+++. .++",
"++. .+++. .+. . .+++. .+++. .+++. .+. . .+++. .+",
"+++. .+++. . .+. .+++. .+++. .+++. . .+. .+++. .",
".+++. .+++. .+++. .+++. .+++. .+++. .+++. .+++. ",
" .+++. .+. .+++. . .+++. .+++. .+. .+++. . .+++.",
". .+++. . .+++. .+. .+++. .+++. . .+++. .+. .+++",
"+. .++.  .+++. .+++. .+++. .++.  .+++. .+++. .++",
"++.+++. .+++. .+++.   .+++.+++. .+++. .+++.   .+",
"+++++. .+++. .+++. ... .+++++. .+++. .+++. ... .",
".+++. .+++. .+++. .+++. .+++. .+++. .+++. .+++. ",
" ... .+++. .+++. .+++++. ... .+++. .+++. .+++++.",
".   .+++. .+++. .+++.+++.   .+++. .+++. .+++.+++",
".   .++. .+++. .+++. .++.   .++. .+++. .+++. .++",
".   .+++.+++. .+++. .+++.   .+++.+++. .+++. .+++",
" ... .+++++. .+++. .+++. ... .+++++. .+++. .+++.",
".+++. .+++. .+++. .+++. .+++. .+++. .+++. .+++. ",
"+++++. ... .+++. .+++. .+++++. ... .+++. .+++. .",
"++.+++.   .+++. .+++. .+++.+++.   .+++. .+++. .+",
"+. .+++. .+++. .+++.  .++. .+++. .+++. .+++.  .+",
"++. .+++. .+. .+++. . .+++. .+++. .+. .+++. . .+",
"+++. .+++. . .+++. .+. .+++. .+++. . .+++. .+. .",
".+++. .+++. .+++. .+++. .+++. .+++. .+++. .+++. ",
" .+++. .+++. .+. . .+++. .+++. .+++. .+. . .+++.",
". .+++. .+++. . .+. .+++. .+++. .+++. . .+. .+++",
"+. .+++. .+++. .+++. .+++. .+++. .+++. .+++. .++",
"++. .+++. .+. . .+++. .+++. .+++. .+. . .+++. .+",
"+++. .+++. . .+. .+++. .+++. .+++. . .+. .+++. .",
".+++. .+++. .+++. .+++. .+++. .+++. .+++. .+++. ",
" .+++. .+. .+++. . .+++. .+++. .+. .+++. . .+++.",
". .+++. . .+++. .+. .+++. .+++. . .+++. .+. .+++",
"+. .++.  .+++. .+++. .+++. .++.  .+++. .+++. .++",
"++.+++. .+++. .+++.   .+++.+++. .+++. .+++.   .+",
"+++++. .+++. .+++. ... .+++++. .+++. .+++. ... .",
".+++. .+++. .+++. .+++. .+++. .+++. .+++. .+++. "};
