/* XPM */
static char * Memphis_xpm[] = {
"116 131 5 1",
" 	c #F5A97F",
".	c #181926",
"X	c #EED49F",
"o	c #24273A",
"O	c #F0C6C6",
"    ....XXXXXXXXXXXXXXXXXXXXXXXXXXXXXXXXXXXXoooOOOOOOOOOOOOOOOOOOOOOOooooXXXXXXXXXXXXXXXXXXXXXXXXXXXXXXXXXXXXoooo   ",
"     ...XXXXXXXXXXXXXXXXXXXXXXXXXXXXXXXXXXXooooOOOOOOOOOOOOOOOOOOOOOOooooXXXXXXXXXXXXXXXXXXXXXXXXXXXXXXXXXXXXoooo   ",
"     ....XXXXXXXXoooXXXXXXXXXXXXXXXXXXXXXXXooooOOOOOOOOOOOOOOOOOOOOOOOooooXXXXXXXXXXXXXXXXXXXXXXXXXXXXXXXXXXXooo    ",
"     ....XXXXXXXXooooXXXXXXXXXXXXXXXXXXXXXXoooOOOOOOOOOOOOOOOOOOOOOOOOooooXXXXXXXXXXXXXXXXXXXXXXooooXXXXXXXXoooo    ",
"      ...XXXXXXXXoooooXXXXXXXXXXXXXXXXXXXXooooOOOOOOOOOOOOOOOOOOOOOOOOOoooXXXXXXXXXXXXXXXXXoooooooooXXXXXXXXoooo    ",
"      ....XXXXXXXXoooooXXXXXXXXXXXXXXXXXXXooooOOOOOOOOOOOOOOOOOOOOOOOOOooooXXXXXXXXXXXooooooooooooooXXXXXXXXooo     ",
"      ....XXXXXXXXXoooooXXXXXXXXXXXXXXXXXooooOOOOOOOOOOOOOOOOOOOOOOOOOOooooXXXXXXXXoooooooooooooooXXXXXXXXXoooo     ",
"       ...XXXXXXXXXXoooooXXXXXXXXXXXXXXXXooooOOOOOOOOOOOOOOOOOOOOOOOOOOOooooXXXXXXXooooooooooXXXXXXXXXXXXXXoooo     ",
"       ....XXXXXXXXXXoooooXXXXXXXXXXXXXXXoooOOOOOOOOOOOOOOOOOOOOOOOOOOOOooooXXXXXXXoooooXXXXXXXXXXXXXXXXXXXooo      ",
"       ....XXXXXXXXXXXooooooXXXXXXXXXXXXooooOOOOOOOOOOOOOOOOOOOOOOOOOOOOOooooXXXXXXXXXXXXXXXXXXXXXXXXXXXXXoooo      ",
"        ...XXXXXXXXXXXXoooooXXXXXXXXXXXXooooOOOOOOOOOOOOOOOOOOOOOOOOOOOOOooooXXXXXXXXXXXXXXXXXXXXXXXXXXXXXoooo      ",
"        ....XXXXXXXXXXXXooooXXXXXXXXXXXooooOOOOOOOOOOOOOOOOOOOOOOOOOOOOOOOooooXXXXXXXXXXXXXXXXXXXXXXXXXXXXooo       ",
"        ....XXXXXXXXXXXXXXXXXXXXXXXXXXXooooOOOOOOOOOOOOOOOOOoooOOOOOOOOOOOooooXXXXXXXXXXXXXXXXXXXXXXXXXXXoooo       ",
"         ...XXXXXXXXXXXXXXXXXXXXXXXXXXooooOOOOOOOOOOOOOOOooooooOOOOOOOOOOOOooooXXXXXXXXXXXXXXXXXXXXXXXXXXoooo       ",
"         ....XXXXXXXXXXXXXXXXXXXXXXXXXooooOOOOOOOOOOOOOooooooooOOOOOOOOOOOOooooXXXXXXXXXXXXXXXXXXXXXXXXXXooo        ",
"         ....XXXXXXXXXXXXXXXXXXXXXXXXXoooOOOOOOOOOOOOoooooooooOOOOOOOOOOOOOOoooXXXXXXXXXXXXXXXXXXXXXXXXXoooo        ",
"          ...XXXXXXXXXXXXXXXXXXXXXXXXooooOOOOOOOOOoooooooooOOOOOOOOOOOOOOOOOooooXXXXXXXXXoooooXXXXXXXXXXoooo        ",
"          ....XXXXXXXXXXXXXXXXXXXXXXXooooOOOOOOOoooooooooOOOOOOOOOOOOOOOOOOOooooXXXXXXXXXooooooooXXXXXXoooo         ",
"          ....XXXXXXXXXXXXXXXXXXXXXXooooOOOOOOOOoooooooOOOOOOOOOOOOOOOOOOOOOOooooXXXXXXXXooooooooXXXXXXoooo         ",
"           ...XXXXXXXXXXXXXXXXoooXXXooooOOOOOOOOooooOOOOOOOOOOOOOOOOOOOOOOOOOooooXXXXXXXXXXXoooooXXXXXXooo          ",
"           ....XXXXXXXXXXXXXXooooXXXoooOOOOOOOOOOOOOOOOOOOOOOOOOOOOOOOOOOOOOOOooooXXXXXXXXXXXXXXXXXXXXoooo          ",
"           ....XXXXXXXXXXXXXoooooXXXoooOOOOOOOOOOOOOOOOOOOOOOOOOOOOOOOOOOOOOOOooooXXXXXXXXXXXXXXXXXXXXoooo          ",
"            ...XXXXXXXXXXXooooooXXXXooooOOOOOOOOOOOOOOOOOOOOOOOOOOOOOOOOOOOOOOOoooXXXXXXXXXXXXXXXXXXXXooo     ...   ",
"            ....XXXXXXXXXooooooXXXXXXoooOOOOOOOOOOOOOOOOOOOOOOOOOOOOOOOOOOOOOOOooooXXXXXXXXXXXXXXXXXXoooo     ..... ",
"..          ....XXXXXXXXooooooXXXXXXXoooOOOOOOOOOOOOOOOOOOOOOOOOOOOOOOOOOOOOOOOooooXXXXXXXXXXXXXXXXXXoooo     ......",
"....         ...XXXXXXooooooXXXXXXXXXooooOOOOOOOOOOOOOOOOOOOOOOOOOOOOOOOOOOOOoooooooXXXXXXXXXXXXXXXXXooo       .....",
"......       ....XXXXXoooooXXXXXXXXXXooooOOOOOOOOOOOOOOOOOOOOOOOOOOOOOOOOOooooooooooXXXXXXXXXXXXXXXXXooo         ...",
"......       ....XXXXXooooXXXXXXXXXXXXooooOOOOOOOOooooooOOOOOOOOOOOOOOOOoooooooooXXXXXXXXXXXXXXXXXXXXooo            ",
"  ....        ...XXXXXXXXXXXXXXXXXXXXXooooOOOOOOOOoooooooooooOOOOOOOOooooooooooXXXXXXXXXXXXXXXXXXXXXooo             ",
"              ....XXXXXXXXXXXXXXXXXXXXXoooOOOOOOOOoooooooooooOOOOOOoooooooooXXXXXXXXXXXXXXXXXXXXXXXXooo             ",
"              ....XXXXXXXXXXXXXXXXXXXXXoooOOOOOOOOOOOOoooooooOOOOoooooooooXXXXXXXXXXXXXXXXXXXXXXXXXXoooo            ",
"               ...XXXXXXXXXXXXXXXXXXXXXooooOOOOOOOOOOOOOOOOOOOOOoooooooXXXXXXXXXXXXXXXXXXXXXXXXXXXXXoooo            ",
"               ....XXXXXXXXXXXXXXXXXXXXooooOOOOOOOOOOOOOOOOOOOOOoooooXXXXXXXXXXXXXXXXXXXXXXXXXXXXXXXoooo            ",
"               ....XXXXXXXXXXXXXXXXXXXXXoooOOOOOOOOOOOOOOOOOOOOOoooXXXXXXXXXXXXXXoooXXXXXXXXXXXXXXXXXoooo           ",
"                ...XXXXXXXXXXXXXXXXXXXXXoooOOOOOOOOOOOOOOOOOOOOOOoooXXXXXXXXXXXXXoooooXXXXXXXXXXXXXXXoooo           ",
"                ....XXXXXXXXXXXXXXXXXXXXoooOOOOOOOOOOOOOOOOOOOOOOoooXXXXXXXXXXXXXoooooooXXXXXXXXXXXXXoooo           ",
"                ....XXXXXXXXXXXXXXXXXXXXooooOOOOOOOOOOOOOOOOOOOOOooooXXXXXXXXXXXXXooooooooXXXXXXXXXXXXooo           ",
"                 ....XXXXXXXXXXXXXXXXXXXooooOOOOOOOOOOOOOOOOOOOOOooooXXXXXXXXXXXXXXXooooooooXXXXXXXXXXoooo          ",
"                 ....XXXXXXXXXXXXXXXXXXXXoooOOOOOOOOOOOOOOOOOOOOOOoooXXXXXXXXXXXXXXXXXooooooXXXXXXXXXXoooo          ",
"       ....     .....XXXXXXXXXXXXXXXXXXXXoooOOOOOOOOOOOOOOOOOOOOOOoooXXXXXXXXXXXXXXXXXXXooooXXXXXXXXXXXooo          ",
"    .......    .....XXXXXXXXXXXXXXXXXXXXXooooOOOOOOOOOOOOOOOOOOOOOooooXXXXXXXXXXXXXXXXXXXXXXXXXXXXXXXXXooo          ",
"...........   .....XXXXXXXXXXXXXXXXXXXXXXooooOOOOOOOOOOOOOOOOOOOOOooooXXXXXXXXXXXXXXXXXXXXXXXXXXXXXXXXXooo          ",
".........    .....XXXXXXXXXXXXXXXXXXXXXXXXoooOOOOOOOOOOOOOOOOOOOOOOoooXXXXXXXXXXXXXXXXXXXXXXXXXXXXXXXXXooo       ...",
"......       ....XXXXXXXXXXXXXXXXXXXXXXXXXoooOOOOOOOOOOOOOOOOOOOOOOoooXXXXXXXXXXXXXXXXXXXXXXXXXXXXXXXXXooo    ......",
"..          ....XXXXXXXXXXXXXXXXXXXXXXXXXXooooOOOOOOOOOOOOOOOOOOOOOooooXXXXXXXXXXXXXXXXXXXXXXXXXXXXXXXXoooo   ......",
"           .....XXXXXXXoooXXXXXXXXXXXXXXXXooooOOOOOOOOOOOOOooooOOOOooooXXXXXXXXXXXXXXXXXXXXXXXXXXXXXXXXoooo   ..... ",
"          .....XXXXXXXXoooooXXXXXXXXXXXXXXXooooOOOOOOOoooooooooOOOOOoooXXXXXXXXXXXXXXXXXXXXXXXXXXXXXXXXXooo         ",
"         .....XXXXXXXXXoooooooXXXXXXXXXXXXXooooOOOOooooooooooooOOOOOoooXXXXXXXXXXXXXXXXXXXXXXXXXXXXXXXXXooo         ",
"        .....XXXXXXXXXXXooooooXXXXXXXXXXXXXooooOOOOooooooooooOOOOOOOooooXXXXXXXXXXXXXXXXXXXXXXXXXXXXXXXXooo         ",
"        ....XXXXXXXXXXXXXXooooXXXXXXXXXXXXXXooooOOOoooooOOOOOOOOOOOOooooXXXXXXXXXXXXXXXXXXXXXXXXXXXXXXXXooo         ",
"       ....XXXXXXXXXXXXXXXXXXXXXXXXXXXXXXXXoooooOOOOOOOOOOOOOOOOOOOOOoooXXXXXXXXXXXXXXXXXXXXXXXXXXXXXXXXooo         ",
"      .....XXXXXXXXXXXXXXXXXXXXXXXXXXXXXooooooooOOOOOOOOOOOOOOOOOOOOOoooXXXXXXXXXXXXXXXXXXXXXXXXXXXXXXXXoooo        ",
"     .....XXXXXXXXXXXXXXXXXXXXXXXXXXXXoooooooooOOOOOOOOOOOOOOOOOOOOOOooooXXXXXXXXXXXXXXXXXXXXXXXXXXXXXXXoooo        ",
"    .....XXXXXXXXXXXXXXXXXXXXXXXXXXooooooooooOOOOOOOOOOOOOOOOOOOOOOOOooooXXXXXXXXXXXoooooXXXXXXXXXXXXXXXXooo        ",
"   .....XXXXXXXXXXXXXXXXXXXXXXXXooooooooooOOOOOOOOOOOOOOOOOOOOOOOOOOOOoooXXXXXXXXXXXooooooooooXXXXXXXXXXXooo        ",
"   ....XXXXXXXXXXXXXXXXXXXXXXoooooooooooOOOOOOOOOOOOOOOOOOOOOOOOOOOOOOooooXXXXXXXXXXoooooooooooooXXXXXXXXooo        ",
"   ....XXXXXXXXXXXXXXoooXXXXoooooooooOOOOOOOOOOOOOOOOOOOOOOOOOOOOOOOOOooooXXXXXXXXXXXXXooooooooooXXXXXXXXooo        ",
"   .....XXXXXXXXXXXXooooXXXXooooooOOOOOOOOOOOOOOOOOOOOOOOOOOOOOOOOOOOOOoooXXXXXXXXXXXXXXXXXXoooooXXXXXXXXooo        ",
"    .....XXXXXXXXXXXooooXXXXXoooOOOOOOOOOOOOOOOOOOOOOOOOOOOOOOOOOOOOOOOooooXXXXXXXXXXXXXXXXXXXXXXXXXXXXXXoooo       ",
"     .....XXXXXXXXXXoooXXXXXXooooOOOOOOOOOOOOOOOOOOOOOOOOOOOOOOOOOOOOOoooooXXXXXXXXXXXXXXXXXXXXXXXXXXXXXXXoooo      ",
"      .....XXXXXXXXooooXXXXXXXooooOOOOOOOOOOOOOOOOOOOOOOOOOOOOOOOOOOOoooooXXXXXXXXXXXXXXXXXXXXXXXXXXXXXXXXXooo      ",
"       .....XXXXXXXooooXXXXXXXooooOOOOOOOOOOOOOOOOOOOOOOOOOOOOOOOOOOoooooXXXXXXXXXXXXXXXXXXXXXXXXXXXXXXXXooooo      ",
"        .....XXXXXooooXXXXXXXXXooooOOOOOOOooooOOOOOOOOOOOOOOOOOOOOOoooooXXXXXXXXXXXXXXXXXXXXXXXXXXXXXXXXoooooo      ",
"         .....XXXXooooXXXXXXXXXooooOOOOOOOooooooooOOOOOOOOOOOOOOOOoooooXXXXXXXXXXXXXXXXXXXXXXXXXXXXXXXooooooo       ",
"          .....XXXoooXXXXXXXXXXXooooOOOOOOoooooooooooOOOOOOOOOOOOoooooXXXXXXXXXXXXXXXXXXXXXXXXXXXXXXXoooooo         ",
"           .....XXoooXXXXXXXXXXXooooOOOOOOOOoooooooooOOOOOOOOOOOoooooXXXXXXXXXXXXXXXXXXXXXXXXXXXXXXXoooooo          ",
"            .....XXXXXXXXXXXXXXXXooooOOOOOOOOOOOoooooOOOOOOOOOOOooooXXXXXXXXXXXXXXXXXXoooXXXXXXXXXoooooo            ",
"             .....XXXXXXXXXXXXXXXooooOOOOOOOOOOOOOOOOOOOOOOOOOOOoooooXXXXXXXXXXXXXXXXooooXXXXXXXXoooooo             ",
"              .....XXXXXXXXXXXXXXXooooOOOOOOOOOOOOOOOOOOOOOOOOOOOoooooXXXXXXXXXXXXXXoooooXXXXXXooooooo              ",
"..             .....XXXXXXXXXXXXXXooooOOOOOOOOOOOOOOOOOOOOOOOOOOOOooooXXXXXXXXXXXXXoooooXXXXXXoooooo              ..",
".....           .....XXXXXXXXXXXXXXooooOOOOOOOOOOOOOOOOOOOOOOOOOOOooooXXXXXXXXXXXXoooooXXXXXXoooooo               ..",
".......          ....XXXXXXXXXXXXXXooooOOOOOOOOOOOOOOOOOOOOOOOOOOOOooooXXXXXXXXXXoooooXXXXXXXooooo                ..",
".......           ....XXXXXXXXXXXXXXooooOOOOOOOOOOOOOOOOOOOOOOOOOOOooooXXXXXXXXXoooooXXXXXXXXXooooo                 ",
"   ....            ....XXXXXXXXXXXXXoooooOOOOOOOOOOOOOOOOOOOOOOOOOOOooooXXXXXXXoooooXXXXXXXXXXXoooo                 ",
"                   .....XXXXXXXXXXXXXooooOOOOOOOOOOOOOOOOOOOOOOOOOOOooooXXXXXXXooooXXXXXXXXXXXXXoooo                ",
"                    ....XXXXXXXXXXXXXXooooOOOOOOOOOOOOOOOOOOOoooOOOOOoooXXXXXXXoooXXXXXXXXXXXXXXooooo               ",
"                  .....XXXXXXXXXXXXXXXooooOOOOOOOOOOOOOOOOooooooOOOOOooooXXXXXXXXXXXXXXXXXXXXXXXXoooo               ",
"                ......XXXXXXXXXXXXXXXXXooooOOOOOOOOOOOOoooooooooOOOOOooooXXXXXXXXXXXXXXXXXXXXXXXXXoooo              ",
"               ......XXXXXXXXXXXXXXXXXXooooOOOOOOOOOOooooooooooOOOOOOOooooXXXXXXXXXXXXXXXXXXXXXXXXoooo              ",
"             .......XXXXXXXoooXXXXXXXXXXooooOOOOOOOOOoooooooOOOOOOOOOOooooXXXXXXXXXXXXXXXXXXXXXXXXXoooo             ",
"           .......XXXXXXXXXooooXXXXXXXXXooooOOOOOOOOOooooOOOOOOOOOOOOOOoooXXXXXXXXXXXXXXXXXXXXXXXXXooooo            ",
"          .......XXXXXXXXXXoooooXXXXXXXXXooooOOOOOOOOOOOOOOOOOOOOOOOOOOooooXXXXXXXXXXXXXXXXXXXXXXXXXoooo            ",
"        .......XXXXXXXXXXXXXooooooXXXXXXXooooOOOOOOOOOOOOOOOOOOOOOOOOOOooooXXXXXXXXXXXXXXXXXXXXXXXXXXoooo           ",
"      .......XXXXXXXXXXXXXXXXooooooXXXXXXXooooOOOOOOOOOOOOOOOOOOOOOOOOOOooooXXXXXXXXXXXXXXXXXXXXXXXXXoooo           ",
"     .......XXXXXXXXXXXXXXXXXXooooooXXXXXXooooOOOOOOOOOOOOOOOOOOOOOOOOOOooooXXXXXXXXXXXXXXXXXXXXXXXXXXoooo          ",
"    ......XXXXXXXXXXXXXXXXXXXXXXooooooXXXXXooooOOOOOOOOOOOOOOOOOOOOOOOOOOooooXXXXXXXXXXXXXXXXXXXXXXXXXooooo         ",
"    ....XXXXXXXXXXXXXXXXXXXXXXXXXoooooXXXXXooooOOOOOOOOOOOOOOOOOOOOOOOOOOooooXXXXXXXXXXXXXXXXXXXXXXXXXXoooo         ",
"    ....XXXXXXXXXXXXXXXXXXXXXXXXXXooooXXXXXXooooOOOOOOOOOOOOOOOOOOOOOOOOOOoooXXXXXXXXXXXXXXXXXXXXXXXXXXXoooo        ",
"     ....XXXXXXXXXXXXXXXXXXXXXXXXXXXXXXXXXXXooooOOOOOOOOOOOOOOOOOOOOOOOOOOooooXXXXXXXXXXXXXXXXXXXXooooXXoooo        ",
"     .....XXXXXXXXXXXXXXXXXXXXXXXXXXXXXXXXXXXooooOOOOOOOOOOOOOOOOOOOOOOOOOooooXXXXXXXXXXXXXXXXXoooooooXXXoooo       ",
"      ....XXXXXXXXoooooooooooXXXXXXXXXXXXXXXXXooooOOOOOOOOOOOOOOOOOOOOOOOOOooooXXXXXXXXXXXXXooooooooooXXXoooo       ",
"       ....XXXXXXXoooooooooooXXXXXXXXXXXXXXXooooooOOOOOOOOOOOOOOOOOOOOOOOOOooooXXXXXXXXXXXXXooooooooXXXXXXoooo      ",
"       .....XXXXXXoooooooooooXXXXXXXXXXXXXooooooooOOOOOOOOOOOOOOOOOOOOOOOOOOoooXXXXXXXXXXXXXoooooXXXXXXXXXooooo     ",
"        ....XXXXXXXXXXXXXXXXXXXXXXXXXXXooooooooooOOOOOOOOOOOOOOOOOOOOOOOOOOOooooXXXXXXXXXXXXXXXXXXXXXXXXXXXoooo     ",
"         ....XXXXXXXXXXXXXXXXXXXXXXXXoooooooooOOOOOOOOOOOOOOOOOOOOOOOOOOOOOOooooXXXXXXXXXXXXXXXXXXXXXXXXXXoooo      ",
"         ....XXXXXXXXXXXXXXXXXXXXXooooooooooOOOOOOOOOOOOOOOOOOOOOOOOOOOOOOOOOooooXXXXXXXXXXXXXXXXXXXXXXXXooooo      ",
"          ....XXXXXXXXXXXXXXXXXXoooooooooOOOOOOOOOOOOOOOOOOOOOOOOOOOOOOOOOOOOooooXXXXXXXXXXXXXXXXXXXXXXXXoooo       ",
"          .....XXXXXXXXXXXXXXXXXoooooooOOOOOOOOOOOOOOOOOOOOOOOOOOOOOOOOOOOOOOOooooXXXXXXXXXXXXXXXXXXXXXXoooo        ",
"           ....XXXXXXXXXXXXXXXXXXooooOOOOOOOOOOOOOOOOOOOOOOOOOOOOOOOOOOOOOOOOooooooXXXXXXXXXXXXXXXXXXXXXoooo        ",
"            ....XXXXXXXXXXXXXXXXXXooooOOOOOOOOOOOOOOOOOOOOOOOOOOOOOOOOOOOOoooooooooXXXXXXXXXXXXXXXXXXXXoooo         ",
"            ....XXXXXXXXXXXoooXXXXXooooOOOOOOOOOOOOOOOOOOOOOOOOOOOOOOOOOooooooooooXXXXXXXXXXXXXXXXXXXXooooo         ",
"             ....XXXXXXXXXXooooXXXXoooooOOOOOOOOOOOOOOOOOOOOOOOOOOOOOooooooooooXXXXXXXXXXXXXXXXXXXXXXXoooo          ",
"             .....XXXXXXXXXooooXXXXXooooOOOOOOOOOOOOOOOOOOOOOOOOOOOoooooooooXXXXXXXXXXXXXXXXXXXXXXXXXoooo           ",
"              ....XXXXXXXXXXooooXXXXXooooOOOOOOOOOOOOOooooOOOOOOOOOoooooooXXXXXXXXXXXXXXXXXXXXXXXXXXXoooo           ",
"...            ....XXXXXXXXXoooooXXXXoooooOOOOOOOOooooooooOOOOOOOOOooooXXXXXXXXXXXXXXXXXXXXXXXXXXXXXoooo            ",
"...            ....XXXXXXXXXXooooXXXXXooooOOOOOoooooooooooOOOOOOOOOooooXXXXXXXXXXXXXXXXXXXXXXXXXXXXooooo         ...",
"...             ....XXXXXXXXXXooooXXXXXooooOOOOoooooooooOOOOOOOOOOOooooXXXXXXXXXXXXXXXXXXXXXXXXXXXXoooo       ......",
"..              ....XXXXXXXXXXooooXXXXXoooooOOOoooooOOOOOOOOOOOOOOOooooXXXXXXXXXXXXXXXXXXXXXXXXXXXoooo     .........",
"                 .....XXXXXXXXXoooXXXXXXooooOOOOOOOOOOOOOOOOOOOOOOOooooXXXXXXXXXXXXXXXXXXXXXXXXXXXoooo     ........ ",
"                  ....XXXXXXXXXoooXXXXXXXooooOOOOOOOOOOOOOOOOOOOOOOooooXXXXXXXXXXXXXXXXXXXXXXXXXXoooo      .....    ",
"                 .....XXXXXXXXXXXXXXXXXXXXooooOOOOOOOOOOOOOOOOOOOOOooooXXXXXXXXXXXXXXXoooXXXXXXXooooo               ",
"                 ....XXXXXXXXXXXXXXXXXXXXXooooOOOOOOOOOOOOOOOOOOOOOoooooXXXXXXXXXXXXXXoooXXXXXXXoooo                ",
"                ....XXXXXXXXXXXXXXXXXXXXXXXooooOOOOOOOOOOOOOOOOOOOOoooooXXXXXXXXXXXXXXooooXXXXXoooo                 ",
"               .....XXXXXXXXXXXXXXXXXXXXXXXXooooOOOOOOOOOoooOOOOOOOoooooXXXXXXXXXXXXXXooooXXXXXoooo                 ",
"               ....XXXXXXXXXXXXXXXXXXXXXXXXXoooooOOOOOOOOooooOOOOOOOooooXXXXXXXXXXXXXXXoooXXXXoooo                  ",
"              ....XXXXXXXXXXXXXXXXXXXXXXXXXXXooooOOOOOOOOoooooOOOOOOooooXXXXXXXXXXXXXXXooooXXXoooo                  ",
"             .....XXXXXXXXXXXXXXXXXXXXXXXXXXXXooooOOOOOOOOoooooOOOOOooooXXXXXXXXXXXXXXXooooXXXXoooo            ...  ",
"             ....XXXXXXXXXXXXXXXXXXXXXXXXXXXXXXooooOOOOOOOOoooooOOOOooooXXXXXXXXXXXXXXXXoooXXXXXoooo           .....",
".           ....XXXXXXXXXXXXXXXXXXXXXXXXXXXXXXXooooOOOOOOOOOooooOOOOooooXXXXXXXXXXXXXXXXooooXXXXXoooo          .....",
"...        .....XXXXXXXXXXXXXXXXXXXXXXXXXXXXXXXXooooOOOOOOOOOoooOOOOooooXXXXXXXXXXXXXXXXooooXXXXXXoooo          ....",
".....      ....XXXXXXXXXXXXXXXXXXXXXXXXXXXXXXXXXXooooOOOOOOOOOOOOOOOooooXXXXXXXXXXXXXXXXXoooXXXXXXXoooo           ..",
".....     ....XXXXXXXXXXXXXXXXXXooooooXXXXXXXXXXXXooooOOOOOOOOOOOOOOooooXXXXXXXXXXXXXXXXXoooXXXXXXXXoooo           .",
" ....    .....XXXXXXXXXoooooooooooooooXXXXXXXXXXXXXooooOOOOOOOOOOOOOooooXXXXXXXXXXXXXXXXXoooXXXXXXXXXoooo           ",
"         ....XXXXoooooooooooooooooooooXXXXXXXXXXXXXooooOOOOOOOOOOOOOoooooXXXXXXXXXXXXXXXXXXXXXXXXXXXXXoooo          ",
"        ....XXXXXoooooooooooooooooXXXXXXXXXXXXXXXXooooOOOOOOOOOOOOOOoooooXXXXXXXXXXXXXXXXXXXXXXXXXXXXXXoooo         ",
"       .....XXXXXooooooooXXXXXXXXXXXXXXXXXXXXXXXXooooOOOOOOOOOOOOOOOOooooXXXXXXXXXXXXXXXXXXXXXXXXXXXXXXXoooo        ",
"       ....XXXXXXXXXXXXXXXXXXXXXXXXXXXXXXXXXXXXXooooOOOOOOOOOOOOOOOOOooooXXXXXXXXXXXXXXXXXXXXXXXXXXXXXXXXoooo       ",
"      ....XXXXXXXXXXXXXXXXXXXXXXXXXXXXXXXXXXXXXooooOOOOOOOOOOOOOOOOOOooooXXXXXXXXXXXXXXXXXXXXXXXXXXXXXXXXXoooo      ",
"     .....XXXXXXXXXXXXXXXXXXXXXXXXXXXXXXXXXXXXooooOOOOOOOOOOOOOOOOOOOooooXXXXXXXXXXXXXXXXXXXXXXXXXXXXXXXXXXoooo     ",
"     ....XXXXXXXXXXXXXXXXXXXXXXXXXXXXXXXXXXXXooooOOOOOOOOOOOOOOOOOOOOooooXXXXXXXXXXXXXXXXXXXXXXXXXXXXXXXXXXXoooo    ",
"    ....XXXXXXXXXXXXXXXXXXXXXXXXXXXXXXXXXXXXXoooOOOOOOOOOOOOOOOOOOOOOooooXXXXXXXXXXXXXXXXXXXXXXXXXXXXXXXXXXXXoooo   "};
